  <svg
                width="24"
                height="24"
                viewBox="0 0 24 24"
                fill="none"
                xmlns="http://www.w3.org/2000/svg"
                style="vertical-align: middle"
              >
                <path
                  d="M7.08001 1.32251H4.20001V4.99811H0.524414V7.87811H4.20001V11.5537H7.08001V7.87811H10.7556V4.99811H7.08001V1.32251Z"
                  fill="black"
                />
                <path
                  d="M8.23968 13.8025L5.64048 16.4017L3.04128 13.8025L1.00488 15.8389L3.60408 18.4381L1.00488 21.0371L3.04128 23.0737L5.64048 20.4745L8.23968 23.0737L10.2761 21.0371L7.67688 18.4381L10.2761 15.8389L8.23968 13.8025Z"
                  fill="black"
                />
                <path
                  d="M13.4844 16.3201H23.7158V19.2001H13.4844V16.3201Z"
                  fill="black"
                />
                <path
                  d="M20.0405 13.5601C20.0405 12.7648 19.3958 12.1201 18.6005 12.1201C16.6941 12.1859 16.6946 14.9346 18.6005 15.0001C19.3958 15.0001 20.0405 14.3555 20.0405 13.5601Z"
                  fill="black"
                />
                <path
                  d="M18.6002 20.52C17.8048 20.52 17.1602 21.1647 17.1602 21.96C17.2259 23.8663 19.9746 23.8659 20.0402 21.96C20.0402 21.1647 19.3955 20.52 18.6002 20.52Z"
                  fill="black"
                />
                <path
                  d="M13.4844 4.97803H23.7158V7.85803H13.4844V4.97803Z"
                  fill="black"
                />
              </svg>