 <svg
                width="24"
                height="24"
                viewBox="0 0 24 24"
                fill="none"
                xmlns="http://www.w3.org/2000/svg"
                style="vertical-align: center"
              >
                <g clip-path="url(#clip0_454_1180)">
                  <path
                    d="M15.0097 4.69259C15.0097 2.21507 17.026 0.198759 19.5045 0.198759C21.9819 0.198759 23.9982 2.21456 23.9982 4.69259C23.9982 5.40584 23.4203 5.98378 22.7071 5.98378C21.9938 5.98378 21.4159 5.40584 21.4159 4.69259C21.4159 3.63847 20.5586 2.78113 19.5045 2.78113C18.4499 2.78113 17.592 3.63847 17.592 4.69259C17.592 5.40584 17.0141 5.98378 16.3009 5.98378C15.5876 5.98378 15.0097 5.40533 15.0097 4.69259ZM0.691824 4.67865C0.691824 2.20113 2.70809 0.184814 5.18659 0.184814C7.66406 0.184814 9.68033 2.20061 9.68033 4.67865C9.68033 5.3919 9.10241 5.96983 8.38918 5.96983C7.67594 5.96983 7.09802 5.3919 7.09802 4.67865C7.09802 3.62453 6.24069 2.76718 5.18659 2.76718C4.13198 2.76718 3.27414 3.62453 3.27414 4.67865C3.27414 5.3919 2.69621 5.96983 1.98298 5.96983C1.26974 5.96983 0.691824 5.3919 0.691824 4.67865ZM0.119067 16.2223C-0.209403 15.4321 0.165032 14.5252 0.955736 14.1973C1.14993 14.1167 1.35135 14.0785 1.54967 14.0785C2.15703 14.0785 2.7334 14.4379 2.98078 15.0345C4.415 18.4871 7.96723 20.7177 12.0308 20.7177C16.0023 20.7177 19.5339 18.486 21.028 15.0308C21.3679 14.2453 22.2799 13.8827 23.0645 14.2236C23.85 14.5634 24.2115 15.475 23.8717 16.2606C21.888 20.8499 17.2398 23.8155 12.0308 23.8155C6.71068 23.8161 2.03514 20.8355 0.119067 16.2223Z"
                    fill="black"
                  />
                </g>
                <defs>
                  <clipPath id="clip0_454_1180">
                    <rect width="24" height="24" fill="white" />
                  </clipPath>
                </defs>
              </svg>